<svg viewBox="0 0 892.89 974.72" xmlns="http://www.w3.org/2000/svg">
    <g id="Layer_2" data-name="Layer 2">
        <g id="Layer_1-2" data-name="Layer 1" fill="#ffffff">
            <path d="M0,487.1q0-214.48.11-429c0-10.43.55-21.09,2.72-31.24C7.49,5.16,21.25-3.21,43,1.09A75.6,75.6,0,0,1,71.71,13.35Q238,129.06,404.36,244.75,551,346.75,697.57,448.84c14.66,10.26,20.1,26.31,19.71,43.82-.43,19.08-8.14,34.53-24.32,45.64Q386.35,748.89,79.78,959.58a131.15,131.15,0,0,1-19.56,11c-26.27,12-54-3.06-59-32.1A96.76,96.76,0,0,1,.06,922.05Q0,704.58,0,487.1Z" />
            <path d="M794,486.76q0-217.47,0-434.95c0-23.46,12.26-41.43,32.93-48.47,30-10.21,60.81,8,65.73,39.13.64,4-.13,8.26-.13,12.4q0,432.21.09,864.41c0,14-2.45,26.8-11.92,37.6a49.8,49.8,0,0,1-55.1,13.81c-19.25-7.11-31.56-25-31.57-46.47q-.12-133.49,0-267Z" />
        </g>
    </g>
</svg>